# 3ds Max Wavefront OBJ Exporter v0.97b - (c)2007 guruware
# File Created: 03.09.2018 15:54:56

mtllib ColumnHalf.mtl

#
# object OldColumn03
#

v  76.2115 0.3847 8.7541
v  78.6487 126.2605 5.3720
v  76.1537 125.3161 2.8084
v  72.7068 0.3847 5.1530
v  82.3600 0.3847 12.1093
v  83.4935 113.6114 8.0976
v  80.2722 124.5846 6.5420
v  77.8350 0.3847 9.9240
v  89.2853 0.3847 13.1592
v  88.9784 106.0740 9.0018
v  85.4192 113.6114 8.6417
v  84.2858 0.3847 12.6534
v  96.1521 0.3847 11.7772
v  94.4417 121.0687 7.9756
v  90.9741 106.0740 8.8545
v  91.2810 0.3847 13.0118
v  102.1320 0.3847 8.1300
v  99.2246 106.0740 5.1426
v  96.2666 121.0687 7.1545
v  97.9770 0.3847 10.9562
v  106.5039 0.3847 2.6575
v  102.7500 106.0740 0.8447
v  100.6586 106.0740 3.7469
v  103.5661 0.3847 6.7343
v  108.7404 0.3847 -3.9802
v  104.5929 98.0470 -4.3998
v  103.6203 106.0740 -0.9573
v  107.3741 0.3847 0.8555
v  108.5719 0.3847 -10.9826
v  104.5310 106.0740 -9.9584
v  104.7944 98.0470 -6.3908
v  108.9419 0.3847 -5.9712
v  106.0185 0.3847 -17.5050
v  102.5716 95.8723 -15.1605
v  104.0393 106.0740 -11.8982
v  108.0802 0.3847 -12.9224
v  101.3883 0.3847 -22.7608
v  98.9511 83.7811 -19.3788
v  101.4461 95.8723 -16.8152
v  104.8930 0.3847 -19.1597
v  95.2398 0.3847 -26.1160
v  94.1063 64.4375 -22.1044
v  97.3276 83.7811 -20.5487
v  99.7648 0.3847 -23.9307
v  88.3145 0.3847 -27.1659
v  88.6214 73.8505 -23.0086
v  92.1806 64.4375 -22.6485
v  93.3140 0.3847 -26.6601
v  81.4478 0.3847 -25.7840
v  83.1581 109.7485 -21.9823
v  86.6257 106.0740 -22.8612
v  86.3188 0.3847 -27.0186
v  75.4678 0.3847 -22.1368
v  78.3752 106.0740 -19.1494
v  81.3332 109.7485 -21.1613
v  79.6228 0.3847 -24.9629
v  71.0959 0.3847 -16.6643
v  74.8498 106.0740 -14.8514
v  76.9412 106.0740 -17.7537
v  74.0337 0.3847 -20.7411
v  68.8594 0.3847 -10.0265
v  73.0069 106.0740 -9.6069
v  73.9795 106.0740 -13.0494
v  70.2257 0.3847 -14.8623
v  69.0279 0.3847 -3.0241
v  73.0688 96.8399 -4.0484
v  72.8054 106.0740 -7.6159
v  68.6579 0.3847 -8.0356
v  71.5813 0.3847 3.4983
v  75.0282 124.5846 1.1538
v  73.5605 96.8399 -2.1086
v  69.5196 0.3847 -1.0843
v  78.9861 124.5846 6.6153
v  76.5489 0.3933 9.9973
v  74.9201 124.5846 2.4374
v  71.4732 0.3933 4.7819
v  84.2358 113.6114 9.1505
v  83.1023 0.3933 13.1621
v  90.0360 106.0740 9.7373
v  90.3429 0.3933 13.8947
v  95.6871 121.0687 8.3050
v  97.3974 0.3933 12.1066
v  100.5075 106.0740 5.0262
v  103.4149 0.3933 8.0136
v  103.9158 106.0740 0.2965
v  107.6696 0.3933 2.1094
v  105.5009 98.0470 -5.3137
v  109.6484 0.3933 -4.8940
v  105.0716 106.0740 -11.1276
v  109.1125 0.3933 -12.1519
v  102.6797 95.8723 -16.4442
v  106.1266 0.3933 -18.7887
v  98.6137 83.7811 -20.6220
v  101.0509 0.3933 -24.0040
v  93.3640 64.4375 -23.1572
v  94.4975 0.3933 -27.1689
v  87.5638 106.0740 -23.7441
v  87.2569 0.3933 -27.9014
v  81.9127 109.7485 -22.3117
v  80.2024 0.3933 -26.1134
v  77.0923 106.0740 -19.0330
v  74.1849 0.3933 -22.0204
v  73.6840 106.0740 -14.3033
v  69.9301 0.3933 -16.1161
v  72.0989 106.0740 -8.6931
v  67.9514 0.3933 -9.1127
v  72.5282 96.8399 -2.8791
v  68.4873 0.3933 -1.8549
v  79.1500 126.2605 5.0860
v  76.4532 125.3161 2.3150
v  79.4067 124.5846 6.0316
v  80.3849 124.5846 5.9758
v  83.8668 113.6114 7.6574
v  84.4314 113.6114 8.4582
v  85.3315 113.6114 8.0712
v  89.1786 106.0740 8.4604
v  89.9830 106.0740 9.0198
v  90.6965 106.0740 8.3484
v  94.4447 121.0687 7.3983
v  95.3919 121.0687 7.6489
v  95.8327 121.0687 6.7739
v  99.0299 106.0740 4.5992
v  100.0057 106.0740 4.5106
v  100.1207 106.0740 3.5376
v  102.3813 106.0740 0.4006
v  103.2679 106.0740 -0.0163
v  103.0432 106.0740 -0.9700
v  104.0945 98.0470 -4.6910
v  104.7851 98.0470 -5.3861
v  104.2477 98.0470 -6.2053
v  103.9630 106.0740 -10.0616
v  104.3742 106.0740 -10.9509
v  103.5891 106.0740 -11.5369
v  102.0026 95.8723 -15.0632
v  102.0849 95.8723 -16.0396
v  101.1466 95.8723 -16.3217
v  98.4498 83.7811 -19.0928
v  98.1931 83.7811 -20.0383
v  97.2149 83.7811 -19.9826
v  93.7330 64.4375 -21.6641
v  93.1684 64.4375 -22.4649
v  92.2683 64.4375 -22.0780
v  88.4212 73.8505 -22.4672
v  87.6168 106.0740 -23.0266
v  86.9033 106.0740 -22.3551
v  83.1551 109.7485 -21.4051
v  82.2079 109.7485 -21.6556
v  81.7671 109.7485 -20.7806
v  78.5699 106.0740 -18.6059
v  77.5941 106.0740 -18.5174
v  77.4791 106.0740 -17.5444
v  75.2185 106.0740 -14.4073
v  74.3318 106.0740 -13.9904
v  74.5566 106.0740 -13.0368
v  73.5053 106.0740 -9.3157
v  72.8147 106.0740 -8.6207
v  73.3521 106.0740 -7.8014
v  73.6368 96.8399 -3.9452
v  73.2255 96.8399 -3.0559
v  74.0107 96.8399 -2.4698
v  75.5972 124.5846 1.0565
v  75.5149 124.5846 2.0328
# 162 vertices

vn -0.7164 0.0328 0.6970
vn -0.7222 0.0325 0.6909
vn -0.7221 0.0326 0.6910
vn -0.7162 0.0328 0.6971
vn -0.4328 0.0331 0.9009
vn -0.3304 0.0367 0.9431
vn -0.3437 0.0363 0.9384
vn -0.4346 0.0330 0.9000
vn -0.0990 0.0363 0.9944
vn -0.0180 0.0392 0.9991
vn -0.0261 0.0390 0.9989
vn -0.1006 0.0362 0.9943
vn 0.2425 0.0387 0.9694
vn 0.1097 0.0328 0.9934
vn 0.1120 0.0330 0.9932
vn 0.2455 0.0388 0.9686
vn 0.5646 0.0341 0.8246
vn 0.6908 0.0394 0.7219
vn 0.6701 0.0386 0.7413
vn 0.5621 0.0340 0.8264
vn 0.8107 0.0388 0.5842
vn 0.9621 0.0389 0.2697
vn 0.9830 0.0425 0.1786
vn 0.9811 0.0421 0.1890
vn 0.9616 0.0388 0.2717
vn 0.9966 0.0419 -0.0715
vn 0.9992 0.0381 0.0119
vn 0.9992 0.0382 0.0103
vn 0.9964 0.0420 -0.0736
vn 0.9102 0.0389 -0.4124
vn 0.8531 0.0436 -0.5200
vn 0.8618 0.0429 -0.5054
vn 0.9113 0.0388 -0.4100
vn 0.7132 0.0431 -0.6996
vn 0.5878 0.0499 -0.8075
vn 0.6116 0.0488 -0.7897
vn 0.7160 0.0430 -0.6968
vn 0.4258 0.0497 -0.9035
vn 0.0959 0.0639 -0.9933
vn 0.2001 0.0603 -0.9779
vn 0.4343 0.0492 -0.8994
vn 0.1057 0.0636 -0.9924
vn 0.2404 0.0538 -0.9692
vn 0.2366 0.0541 -0.9701
vn 0.1005 0.0640 -0.9929
vn -0.2447 0.0388 -0.9688
vn -0.2083 0.0372 -0.9774
vn -0.2090 0.0373 -0.9772
vn -0.2455 0.0388 -0.9686
vn -0.5627 0.0375 -0.8258
vn -0.5947 0.0391 -0.8030
vn -0.5928 0.0390 -0.8044
vn -0.5620 0.0375 -0.8263
vn -0.8107 0.0388 -0.5842
vn -0.9616 0.0388 -0.2717
vn -0.9964 0.0389 0.0759
vn -0.9820 0.0431 0.1840
vn -0.9845 0.0426 0.1703
vn -0.9965 0.0388 0.0736
vn -0.9136 0.0423 0.4044
vn -0.9830 0.0307 0.1811
vn -0.9822 0.0309 0.1852
vn -0.9111 0.0425 0.4099
vn -0.9552 0.0264 0.2948
vn -0.9648 0.0261 0.2617
vn -0.3022 0.0264 0.9529
vn -0.2877 0.0259 0.9574
vn -0.8170 0.0286 0.5760
vn -0.8171 0.0286 0.5758
vn 0.0569 0.0261 0.9980
vn 0.0571 0.0261 0.9980
vn -0.5707 0.0306 0.8206
vn -0.5708 0.0306 0.8205
vn 0.3948 0.0286 0.9183
vn 0.3949 0.0286 0.9183
vn -0.2556 0.0268 0.9664
vn -0.2558 0.0268 0.9664
vn 0.6850 0.0306 0.7279
vn 0.6852 0.0306 0.7277
vn 0.0903 0.0306 0.9954
vn 0.0901 0.0306 0.9955
vn 0.8927 0.0268 0.4498
vn 0.8928 0.0268 0.4496
vn 0.4253 0.0306 0.9045
vn 0.4251 0.0306 0.9046
vn 0.9926 0.0306 0.1173
vn 0.9927 0.0306 0.1171
vn 0.7090 0.0331 0.7044
vn 0.7088 0.0331 0.7046
vn 0.9729 0.0306 -0.2293
vn 0.9728 0.0306 -0.2295
vn 0.9072 0.0306 0.4195
vn 0.9071 0.0306 0.4197
vn 0.8357 0.0331 -0.5482
vn 0.8356 0.0331 -0.5483
vn 0.9959 0.0339 0.0839
vn 0.9959 0.0339 0.0841
vn 0.5979 0.0306 -0.8010
vn 0.5977 0.0306 -0.8011
vn 0.9644 0.0388 -0.2617
vn 0.9644 0.0388 -0.2615
vn 0.2878 0.0339 -0.9571
vn 0.2876 0.0339 -0.9571
vn 0.8163 0.0505 -0.5755
vn 0.8165 0.0505 -0.5752
vn -0.0569 0.0388 -0.9976
vn -0.0571 0.0388 -0.9976
vn 0.9063 0.0201 -0.4222
vn 0.5708 0.0306 -0.8205
vn -0.3944 0.0505 -0.9175
vn -0.3947 0.0505 -0.9174
vn 0.2556 0.0296 -0.9663
vn 0.2558 0.0296 -0.9663
vn -0.6850 0.0306 -0.7279
vn -0.6852 0.0306 -0.7277
vn -0.0903 0.0306 -0.9954
vn -0.0901 0.0306 -0.9955
vn -0.8927 0.0296 -0.4497
vn -0.8928 0.0296 -0.4495
vn -0.4253 0.0306 -0.9045
vn -0.4251 0.0306 -0.9046
vn -0.9926 0.0306 -0.1173
vn -0.9927 0.0306 -0.1171
vn -0.7090 0.0306 -0.7045
vn -0.7089 0.0306 -0.7046
vn -0.9729 0.0306 0.2293
vn -0.9728 0.0306 0.2295
vn -0.9071 0.0335 -0.4195
vn -0.9071 0.0335 -0.4197
vn -0.8358 0.0306 0.5482
vn -0.8357 0.0306 0.5484
vn -0.9961 0.0261 -0.0839
vn -0.9961 0.0261 -0.0841
vn -0.5978 0.0336 0.8009
vn -0.5976 0.0335 0.8011
vn -0.1304 0.9648 -0.2285
vn -0.2091 0.9696 -0.1269
vn 0.6966 0.5126 0.5020
vn 0.4312 0.4926 0.7559
vn -0.0000 1.0000 -0.0000
vn 0.7274 0.3010 0.6168
vn 0.9282 0.3229 0.1848
vn 0.0000 1.0000 -0.0000
vn 0.8523 0.4175 0.3152
vn 0.8852 0.4448 -0.1361
vn -0.9743 0.2250 -0.0050
vn -0.8507 0.2422 0.4666
vn 0.9173 0.2250 -0.3285
vn 0.6398 0.2422 -0.7294
vn 0.4632 0.3961 -0.7928
vn 0.0199 0.4226 -0.9061
vn -0.0000 1.0000 0.0000
vn -0.1641 0.3961 0.9034
vn 0.2912 0.4226 0.8582
vn 0.0000 1.0000 0.0000
vn -0.1596 0.3214 -0.9334
vn -0.5875 0.3445 -0.7322
vn -0.4764 0.2753 -0.8350
vn -0.8166 0.2957 -0.4957
vn -0.7508 0.1762 -0.6366
vn -0.9629 0.1900 -0.1917
vn 0.8802 0.3453 0.3255
vn 0.9184 0.3695 -0.1412
vn 0.9968 0.0310 -0.0736
vn 0.9375 0.0294 0.3467
vn 0.7277 0.6859 0.0038
vn 0.6142 0.7136 -0.3369
vn -0.6851 0.6859 0.2454
vn -0.4620 0.7136 0.5266
vn -0.1674 0.3511 0.9212
vn 0.2978 0.3757 0.8776
vn -0.1672 0.1239 -0.9781
vn -0.6202 0.1337 -0.7730
vn -0.4325 0.8626 -0.2625
vn -0.3897 0.7210 -0.5730
# 175 vertex normals

vt 0.6087 0.0638 0.0000
vt 0.6068 0.9752 0.0000
vt 0.5744 0.9752 0.0000
vt 0.5725 0.0638 0.0000
vt 0.6596 0.0638 0.0000
vt 0.6577 0.8504 0.0000
vt 0.6250 0.9752 0.0000
vt 0.6231 0.0638 0.0000
vt 0.7109 0.0638 0.0000
vt 0.7090 0.7981 0.0000
vt 0.6761 0.8504 0.0000
vt 0.6742 0.0638 0.0000
vt 0.7623 0.0638 0.0000
vt 0.7604 0.9022 0.0000
vt 0.7274 0.7981 0.0000
vt 0.7255 0.0638 0.0000
vt 0.8134 0.0638 0.0000
vt 0.8115 0.7981 0.0000
vt 0.7788 0.9022 0.0000
vt 0.7769 0.0638 0.0000
vt 0.8639 0.0638 0.0000
vt 0.8621 0.7981 0.0000
vt 0.8297 0.7981 0.0000
vt 0.8278 0.0638 0.0000
vt 0.9140 0.0638 0.0000
vt 0.9122 0.7423 0.0000
vt 0.8801 0.7981 0.0000
vt 0.8782 0.0638 0.0000
vt 0.9639 0.0638 0.0000
vt 0.9621 0.7981 0.0000
vt 0.9301 0.7423 0.0000
vt 0.9282 0.0638 0.0000
vt 0.1025 0.0638 0.0000
vt 0.1007 0.7272 0.0000
vt 0.0686 0.7981 0.0000
vt 0.0667 0.0638 0.0000
vt 0.1530 0.0638 0.0000
vt 0.1511 0.6432 0.0000
vt 0.1187 0.7272 0.0000
vt 0.1168 0.0638 0.0000
vt 0.2039 0.0638 0.0000
vt 0.2020 0.6432 0.0000
vt 0.1693 0.6432 0.0000
vt 0.1674 0.0638 0.0000
vt 0.2552 0.0638 0.0000
vt 0.2533 0.6432 0.0000
vt 0.2204 0.6432 0.0000
vt 0.2185 0.0638 0.0000
vt 0.3066 0.0638 0.0000
vt 0.3047 0.8722 0.0000
vt 0.2717 0.7981 0.0000
vt 0.2698 0.0638 0.0000
vt 0.3577 0.0638 0.0000
vt 0.3558 0.7981 0.0000
vt 0.3231 0.8722 0.0000
vt 0.3212 0.0638 0.0000
vt 0.4082 0.0638 0.0000
vt 0.4064 0.7981 0.0000
vt 0.3740 0.7981 0.0000
vt 0.3721 0.0638 0.0000
vt 0.4583 0.0638 0.0000
vt 0.4565 0.7981 0.0000
vt 0.4244 0.7981 0.0000
vt 0.4225 0.0638 0.0000
vt 0.5082 0.0638 0.0000
vt 0.5064 0.7339 0.0000
vt 0.4744 0.7981 0.0000
vt 0.4725 0.0638 0.0000
vt 0.5582 0.0638 0.0000
vt 0.5564 0.9752 0.0000
vt 0.5243 0.7339 0.0000
vt 0.5224 0.0638 0.0000
vt 0.6159 0.9752 0.0000
vt 0.6159 0.0639 0.0000
vt 0.5654 0.9752 0.0000
vt 0.5654 0.0639 0.0000
vt 0.6669 0.8504 0.0000
vt 0.6669 0.0639 0.0000
vt 0.7182 0.7981 0.0000
vt 0.7182 0.0639 0.0000
vt 0.7696 0.9022 0.0000
vt 0.7696 0.0639 0.0000
vt 0.8206 0.7981 0.0000
vt 0.8206 0.0639 0.0000
vt 0.8711 0.7981 0.0000
vt 0.8711 0.0639 0.0000
vt 0.9211 0.7423 0.0000
vt 0.9211 0.0639 0.0000
vt 0.0596 0.7981 0.0000
vt 0.0507 0.7981 0.0000
vt 0.0525 0.0638 0.0000
vt 0.0596 0.0639 0.0000
vt 0.1097 0.7272 0.0000
vt 0.1097 0.0639 0.0000
vt 0.1602 0.6432 0.0000
vt 0.1602 0.0639 0.0000
vt 0.2112 0.6432 0.0000
vt 0.2112 0.0639 0.0000
vt 0.2625 0.7981 0.0000
vt 0.2625 0.0639 0.0000
vt 0.3139 0.8722 0.0000
vt 0.3139 0.0639 0.0000
vt 0.3649 0.7981 0.0000
vt 0.3649 0.0639 0.0000
vt 0.4154 0.7981 0.0000
vt 0.4154 0.0639 0.0000
vt 0.4654 0.7981 0.0000
vt 0.4654 0.0639 0.0000
vt 0.5153 0.7339 0.0000
vt 0.5153 0.0639 0.0000
vt 0.6087 0.9752 0.0000
vt 0.5725 0.9752 0.0000
vt 0.6230 0.9752 0.0000
vt 0.6597 0.8504 0.0000
vt 0.6741 0.8504 0.0000
vt 0.7110 0.7981 0.0000
vt 0.7255 0.7981 0.0000
vt 0.7624 0.9022 0.0000
vt 0.7768 0.9022 0.0000
vt 0.8134 0.7981 0.0000
vt 0.8277 0.7981 0.0000
vt 0.8640 0.7981 0.0000
vt 0.8782 0.7981 0.0000
vt 0.9141 0.7423 0.0000
vt 0.9282 0.7423 0.0000
vt 0.9640 0.7981 0.0000
vt 0.0526 0.7981 0.0000
vt 0.0667 0.7981 0.0000
vt 0.1026 0.7272 0.0000
vt 0.1168 0.7272 0.0000
vt 0.1530 0.6432 0.0000
vt 0.1673 0.6432 0.0000
vt 0.2040 0.6432 0.0000
vt 0.2184 0.6432 0.0000
vt 0.2553 0.6432 0.0000
vt 0.2698 0.7981 0.0000
vt 0.3067 0.8722 0.0000
vt 0.3211 0.8722 0.0000
vt 0.3577 0.7981 0.0000
vt 0.3720 0.7981 0.0000
vt 0.4083 0.7981 0.0000
vt 0.4225 0.7981 0.0000
vt 0.4584 0.7981 0.0000
vt 0.4725 0.7981 0.0000
vt 0.5083 0.7339 0.0000
vt 0.5224 0.7339 0.0000
vt 0.5583 0.9752 0.0000
# 147 texture coords

g OldColumn03
usemtl OldColumn01_part_01
s off
f 1/1/1 2/2/2 3/3/3 4/4/4 
f 5/5/5 6/6/6 7/7/7 8/8/8 
f 9/9/9 10/10/10 11/11/11 12/12/12 
f 13/13/13 14/14/14 15/15/15 16/16/16 
f 17/17/17 18/18/18 19/19/19 20/20/20 
f 21/21/21 22/22/21 23/23/21 24/24/21 
f 25/25/22 26/26/23 27/27/24 28/28/25 
f 29/29/26 30/30/27 31/31/28 32/32/29 
f 33/33/30 34/34/31 35/35/32 36/36/33 
f 37/37/34 38/38/35 39/39/36 40/40/37 
f 41/41/38 42/42/39 43/43/40 44/44/41 
f 45/45/42 46/46/43 47/47/44 48/48/45 
f 49/49/46 50/50/47 51/51/48 52/52/49 
f 53/53/50 54/54/51 55/55/52 56/56/53 
f 57/57/54 58/58/54 59/59/54 60/60/54 
f 61/61/55 62/62/55 63/63/55 64/64/55 
f 65/65/56 66/66/57 67/67/58 68/68/59 
f 69/69/60 70/70/61 71/71/62 72/72/63 
f 73/73/64 2/2/64 1/1/64 74/74/65 
f 3/3/66 75/75/66 76/76/66 4/4/67 
f 77/77/68 6/6/68 5/5/68 78/78/69 
f 7/7/70 73/73/70 74/74/70 8/8/71 
f 79/79/72 10/10/72 9/9/72 80/80/73 
f 11/11/74 77/77/74 78/78/74 12/12/75 
f 81/81/76 14/14/76 13/13/76 82/82/77 
f 15/15/78 79/79/78 80/80/78 16/16/79 
f 83/83/80 18/18/80 17/17/80 84/84/81 
f 19/19/82 81/81/82 82/82/82 20/20/83 
f 85/85/84 22/22/84 21/21/84 86/86/85 
f 23/23/86 83/83/86 84/84/86 24/24/87 
f 87/87/88 26/26/88 25/25/88 88/88/89 
f 27/27/90 85/85/90 86/86/90 28/28/91 
f 89/89/92 30/90/92 29/91/92 90/92/93 
f 31/31/94 87/87/94 88/88/94 32/32/95 
f 91/93/96 34/34/96 33/33/96 92/94/97 
f 35/35/98 89/89/98 90/92/98 36/36/99 
f 93/95/100 38/38/100 37/37/100 94/96/101 
f 39/39/102 91/93/102 92/94/102 40/40/103 
f 95/97/104 42/42/104 41/41/104 96/98/105 
f 43/43/106 93/95/106 94/96/106 44/44/107 
f 97/99/108 46/46/108 45/45/108 98/100/109 
f 47/47/110 95/97/110 96/98/110 48/48/111 
f 99/101/112 50/50/112 49/49/112 100/102/113 
f 51/51/114 97/99/114 98/100/114 52/52/115 
f 101/103/116 54/54/116 53/53/116 102/104/117 
f 55/55/118 99/101/118 100/102/118 56/56/119 
f 103/105/120 58/58/120 57/57/120 104/106/121 
f 59/59/122 101/103/122 102/104/122 60/60/123 
f 105/107/124 62/62/124 61/61/124 106/108/125 
f 63/63/126 103/105/126 104/106/126 64/64/127 
f 107/109/128 66/66/128 65/65/128 108/110/129 
f 67/67/130 105/107/130 106/108/130 68/68/131 
f 75/75/132 70/70/132 69/69/132 76/76/133 
f 71/71/134 107/109/134 108/110/134 72/72/135 
f 3/3/136 2/2/136 109/111/136 110/112/137 
f 2/2/138 73/73/138 111/73/138 109/111/139 
f 73/73/140 7/7/140 112/113/140 111/73/140 
f 7/7/141 6/6/141 113/114/141 112/113/142 
f 6/6/143 77/77/143 114/77/143 113/114/143 
f 77/77/143 11/11/143 115/115/143 114/77/140 
f 11/11/144 10/10/144 116/116/144 115/115/145 
f 10/10/143 79/79/143 117/79/143 116/116/143 
f 79/79/143 15/15/143 118/117/143 117/79/140 
f 15/15/146 14/14/146 119/118/146 118/117/147 
f 14/14/143 81/81/143 120/81/143 119/118/140 
f 81/81/143 19/19/143 121/119/143 120/81/143 
f 19/19/148 18/18/148 122/120/148 121/119/149 
f 18/18/143 83/83/143 123/83/143 122/120/143 
f 83/83/143 23/23/143 124/121/143 123/83/143 
f 23/23/143 22/22/143 125/122/143 124/121/143 
f 22/22/143 85/85/143 126/85/143 125/122/143 
f 85/85/143 27/27/143 127/123/143 126/85/143 
f 27/27/150 26/26/150 128/124/150 127/123/151 
f 26/26/143 87/87/143 129/87/143 128/124/143 
f 87/87/143 31/31/143 130/125/143 129/87/152 
f 31/31/153 30/30/153 131/126/153 130/125/154 
f 30/90/155 89/89/155 132/89/155 131/127/152 
f 89/89/143 35/35/143 133/128/143 132/89/143 
f 35/35/156 34/34/156 134/129/156 133/128/157 
f 34/34/155 91/93/155 135/93/155 134/129/155 
f 91/93/143 39/39/143 136/130/143 135/93/143 
f 39/39/158 38/38/158 137/131/158 136/130/159 
f 38/38/143 93/95/143 138/95/143 137/131/143 
f 93/95/140 43/43/140 139/132/140 138/95/140 
f 43/43/160 42/42/160 140/133/160 139/132/161 
f 42/42/143 95/97/143 141/97/143 140/133/143 
f 95/97/143 47/47/143 142/134/143 141/97/140 
f 47/47/162 46/46/162 143/135/162 142/134/163 
f 46/46/164 97/99/164 144/99/164 143/135/165 
f 97/99/143 51/51/143 145/136/143 144/99/140 
f 51/51/166 50/50/166 146/137/166 145/136/167 
f 50/50/143 99/101/143 147/101/143 146/137/140 
f 99/101/143 55/55/143 148/138/143 147/101/143 
f 55/55/168 54/54/168 149/139/168 148/138/169 
f 54/54/143 101/103/143 150/103/143 149/139/143 
f 101/103/143 59/59/143 151/140/143 150/103/143 
f 59/59/143 58/58/143 152/141/143 151/140/143 
f 58/58/143 103/105/143 153/105/143 152/141/143 
f 103/105/143 63/63/143 154/142/143 153/105/143 
f 63/63/143 62/62/143 155/143/143 154/142/143 
f 62/62/143 105/107/143 156/107/143 155/143/143 
f 105/107/143 67/67/143 157/144/143 156/107/152 
f 67/67/170 66/66/170 158/145/170 157/144/171 
f 66/66/155 107/109/155 159/109/155 158/145/152 
f 107/109/143 71/71/143 160/146/143 159/109/143 
f 71/71/172 70/70/172 161/147/172 160/146/173 
f 70/70/155 75/75/155 162/75/155 161/147/155 
f 75/75/174 3/3/174 110/112/174 162/75/175 
# 108 polygons

