# 3ds Max Wavefront OBJ Exporter v0.97b - (c)2007 guruware
# File Created: 03.09.2018 15:53:48

mtllib ColumnFull.mtl

#
# object OldColumn01_part_03
#

v  -155.0395 321.0825 -38.1230
v  -94.7421 321.0825 -38.3930
v  -94.4621 321.0825 24.1162
v  -154.7595 321.0825 24.3863
v  -155.0395 331.2475 -38.1230
v  -154.7595 331.2475 24.3863
v  -94.4621 331.2475 24.1162
v  -94.7421 331.2475 -38.3930
# 8 vertices

vn 0.0000 -1.0000 -0.0000
vn 0.0000 1.0000 -0.0000
vn -1.0000 0.0000 0.0045
vn 0.0045 0.0000 1.0000
vn 1.0000 0.0000 -0.0045
vn -0.0045 0.0000 -1.0000
# 6 vertex normals

vt 0.9853 0.4129 0.0000
vt 0.9853 0.8317 0.0000
vt 0.5512 0.8317 0.0000
vt 0.5512 0.4129 0.0000
vt 0.0576 0.5255 0.0000
vt 0.4917 0.5255 0.0000
vt 0.4917 0.9443 0.0000
vt 0.0576 0.9443 0.0000
vt 0.0417 0.1654 0.0000
vt 0.4758 0.1654 0.0000
vt 0.4758 0.2376 0.0000
vt 0.0417 0.2376 0.0000
vt 0.5215 0.2445 0.0000
vt 0.9403 0.2445 0.0000
vt 0.9403 0.3166 0.0000
vt 0.5215 0.3166 0.0000
vt 0.0357 0.3048 0.0000
vt 0.4698 0.3048 0.0000
vt 0.4698 0.3769 0.0000
vt 0.0357 0.3769 0.0000
vt 0.5304 0.1161 0.0000
vt 0.9492 0.1161 0.0000
vt 0.9492 0.1883 0.0000
vt 0.5304 0.1883 0.0000
# 24 texture coords

g OldColumn01_part_03
usemtl OldColumn01_part_03
s off
f 1/1/1 2/2/1 3/3/1 4/4/1 
f 5/5/2 6/6/2 7/7/2 8/8/2 
f 1/9/3 4/10/3 6/11/3 5/12/3 
f 4/13/4 3/14/4 7/15/4 6/16/4 
f 3/17/5 2/18/5 8/19/5 7/20/5 
f 2/21/6 1/22/6 5/23/6 8/24/6 
# 6 polygons

#
# object OldColumn01_part_01
#

v  -128.2499 0.3942 -26.8659
v  -127.3239 305.1942 -22.8014
v  -123.7510 305.1942 -22.9783
v  -123.2310 0.3942 -27.1144
v  -134.8323 0.3942 -24.4713
v  -132.5719 305.1942 -20.9686
v  -129.2750 305.1942 -22.3568
v  -130.2010 0.3942 -26.4214
v  -140.1987 0.3942 -19.9697
v  -136.8767 305.1942 -17.4514
v  -134.2534 305.1942 -19.8835
v  -136.5137 0.3942 -23.3862
v  -143.7018 0.3942 -13.9043
v  -139.7188 305.1942 -12.6740
v  -138.0856 305.1942 -15.8567
v  -141.4076 0.3942 -18.3750
v  -144.9192 0.3942 -7.0065
v  -140.7556 305.1942 -7.2126
v  -140.3094 305.1942 -10.7620
v  -144.2924 0.3942 -11.9923
v  -143.7039 0.3942 -0.1083
v  -139.8620 305.1942 -1.7260
v  -140.6566 305.1942 -5.2139
v  -144.8202 0.3942 -5.0078
v  -140.2027 0.3942 5.9583
v  -137.1457 305.1942 3.1240
v  -139.0854 305.1942 0.1183
v  -142.9273 0.3942 1.7360
v  -134.8377 0.3942 10.4614
v  -132.9344 305.1942 6.7526
v  -135.7852 305.1942 4.5915
v  -138.8421 0.3942 7.4257
v  -128.2560 0.3942 12.8581
v  -127.7361 305.1942 8.7220
v  -131.1540 305.1942 7.6662
v  -133.0573 0.3942 11.3751
v  -121.2516 0.3942 12.8592
v  -122.1777 305.1942 8.7947
v  -125.7506 305.1942 8.9716
v  -126.2705 0.3942 13.1077
v  -114.6693 0.3942 10.4646
v  -116.9296 305.1942 6.9619
v  -120.2265 305.1942 8.3501
v  -119.3005 0.3942 12.4147
v  -109.3029 0.3942 5.9630
v  -112.6249 305.1942 3.4447
v  -115.2482 305.1942 5.8768
v  -112.9878 0.3942 9.3795
v  -105.7997 0.3942 -0.1024
v  -109.7827 305.1942 -1.3327
v  -111.4160 305.1942 1.8500
v  -108.0940 0.3942 4.3683
v  -104.5824 0.3942 -7.0002
v  -108.7459 305.1942 -6.7941
v  -109.1921 305.1942 -3.2447
v  -105.2091 0.3942 -2.0144
v  -105.7976 0.3942 -13.8984
v  -109.6396 305.1942 -12.2807
v  -108.8449 305.1942 -8.7928
v  -104.6813 0.3942 -8.9989
v  -109.2989 0.3942 -19.9650
v  -112.3558 305.1942 -17.1307
v  -110.4162 305.1942 -14.1250
v  -106.5742 0.3942 -15.7427
v  -114.6639 0.3942 -24.4681
v  -116.5671 305.1942 -20.7593
v  -113.7164 305.1942 -18.5982
v  -110.6594 0.3942 -21.4324
v  -121.2455 0.3942 -26.8648
v  -121.7655 305.1942 -22.7287
v  -118.3475 305.1942 -21.6729
v  -116.4443 0.3942 -25.3818
v  -128.4797 305.2029 -23.3702
v  -129.4057 0.4029 -27.4347
v  -122.6570 305.2029 -23.6585
v  -122.1371 0.4029 -27.7947
v  -133.8526 305.2029 -21.1078
v  -136.1129 0.4029 -24.6105
v  -138.1277 305.2029 -17.1442
v  -141.4497 0.4029 -19.6625
v  -140.7893 305.2029 -11.9574
v  -144.7723 0.4029 -13.1877
v  -141.5165 305.2029 -6.1732
v  -145.6801 0.4029 -5.9670
v  -140.2215 305.2029 -0.4890
v  -144.0634 0.4029 1.1287
v  -137.0604 305.2029 4.4094
v  -140.1174 0.4029 7.2436
v  -132.4147 305.2029 7.9313
v  -134.3179 0.4029 11.6401
v  -126.8445 305.2029 9.6518
v  -127.3645 0.4029 13.7879
v  -121.0219 305.2029 9.3635
v  -120.0958 0.4029 13.4280
v  -115.6489 305.2029 7.1011
v  -113.3886 0.4029 10.6038
v  -111.3738 305.2029 3.1375
v  -108.0518 0.4029 5.6558
v  -108.7122 305.2029 -2.0493
v  -104.7292 0.4029 -0.8190
v  -107.9850 305.2029 -7.8335
v  -103.8215 0.4029 -8.0397
v  -109.2801 305.2029 -13.5177
v  -105.4381 0.4029 -15.1354
v  -112.4411 305.2029 -18.4161
v  -109.3841 0.4029 -21.2503
v  -117.0869 305.2029 -21.9380
v  -115.1836 0.4029 -25.6468
# 108 vertices

vn -0.0495 0.0135 -0.9987
vn -0.3880 0.0135 -0.9215
vn -0.6798 0.0135 -0.7333
vn -0.8896 0.0135 -0.4565
vn -0.9921 0.0135 -0.1247
vn -0.9749 0.0135 0.2221
vn -0.8402 0.0135 0.5422
vn -0.6041 0.0135 0.7968
vn -0.2951 0.0135 0.9554
vn 0.0495 0.0135 0.9987
vn 0.3880 0.0135 0.9215
vn 0.6798 0.0135 0.7333
vn 0.8896 0.0135 0.4565
vn 0.9921 0.0135 0.1247
vn 0.9749 0.0135 -0.2221
vn 0.8402 0.0135 -0.5422
vn 0.6041 0.0135 -0.7968
vn 0.2951 0.0135 -0.9554
vn 0.4416 0.0106 -0.8971
vn -0.5281 0.0106 -0.8491
vn 0.1081 0.0106 -0.9941
vn -0.7867 0.0106 -0.6173
vn -0.2384 0.0106 -0.9711
vn -0.9503 0.0106 -0.3110
vn -0.5561 0.0106 -0.8310
vn -0.9994 0.0106 0.0328
vn -0.8068 0.0106 -0.5907
vn -0.9279 0.0106 0.3726
vn -0.9602 0.0106 -0.2791
vn -0.7445 0.0106 0.6675
vn -0.9978 0.0106 0.0661
vn -0.4713 0.0106 0.8819
vn -0.9150 0.0106 0.4034
vn -0.1413 0.0106 0.9899
vn -0.7218 0.0106 0.6920
vn 0.2058 0.0106 0.9785
vn -0.4416 0.0106 0.8971
vn 0.5281 0.0106 0.8491
vn -0.1081 0.0106 0.9941
vn 0.7867 0.0106 0.6173
vn 0.2384 0.0106 0.9711
vn 0.9503 0.0106 0.3110
vn 0.5561 0.0106 0.8310
vn 0.9994 0.0106 -0.0328
vn 0.8068 0.0106 0.5907
vn 0.9279 0.0106 -0.3726
vn 0.9602 0.0106 0.2791
vn 0.7445 0.0106 -0.6675
vn 0.9978 0.0106 -0.0661
vn 0.4713 0.0106 -0.8819
vn 0.9150 0.0106 -0.4034
vn 0.1413 0.0106 -0.9899
vn 0.7218 0.0106 -0.6920
vn -0.2058 0.0106 -0.9785
# 54 vertex normals

vt 0.7449 0.0509 0.0000
vt 0.7431 0.9438 0.0000
vt 0.7115 0.9438 0.0000
vt 0.7096 0.0509 0.0000
vt 0.7945 0.0509 0.0000
vt 0.7927 0.9438 0.0000
vt 0.7611 0.9438 0.0000
vt 0.7592 0.0509 0.0000
vt 0.8442 0.0509 0.0000
vt 0.8423 0.9438 0.0000
vt 0.8107 0.9438 0.0000
vt 0.8088 0.0509 0.0000
vt 0.8938 0.0509 0.0000
vt 0.8919 0.9438 0.0000
vt 0.8603 0.9438 0.0000
vt 0.8584 0.0509 0.0000
vt 0.9434 0.0509 0.0000
vt 0.9415 0.9438 0.0000
vt 0.9099 0.9438 0.0000
vt 0.9080 0.0509 0.0000
vt 0.1001 0.0509 0.0000
vt 0.0983 0.9438 0.0000
vt 0.0666 0.9438 0.0000
vt 0.0648 0.0509 0.0000
vt 0.1497 0.0509 0.0000
vt 0.1479 0.9438 0.0000
vt 0.1162 0.9438 0.0000
vt 0.1144 0.0509 0.0000
vt 0.1993 0.0509 0.0000
vt 0.1975 0.9438 0.0000
vt 0.1658 0.9438 0.0000
vt 0.1640 0.0509 0.0000
vt 0.2489 0.0509 0.0000
vt 0.2471 0.9438 0.0000
vt 0.2154 0.9438 0.0000
vt 0.2136 0.0509 0.0000
vt 0.2985 0.0509 0.0000
vt 0.2967 0.9438 0.0000
vt 0.2650 0.9438 0.0000
vt 0.2632 0.0509 0.0000
vt 0.3481 0.0509 0.0000
vt 0.3463 0.9438 0.0000
vt 0.3146 0.9438 0.0000
vt 0.3128 0.0509 0.0000
vt 0.3977 0.0509 0.0000
vt 0.3959 0.9438 0.0000
vt 0.3642 0.9438 0.0000
vt 0.3624 0.0509 0.0000
vt 0.4473 0.0509 0.0000
vt 0.4455 0.9438 0.0000
vt 0.4138 0.9438 0.0000
vt 0.4120 0.0509 0.0000
vt 0.4969 0.0509 0.0000
vt 0.4951 0.9438 0.0000
vt 0.4635 0.9438 0.0000
vt 0.4616 0.0509 0.0000
vt 0.5465 0.0509 0.0000
vt 0.5447 0.9438 0.0000
vt 0.5131 0.9438 0.0000
vt 0.5112 0.0509 0.0000
vt 0.5961 0.0509 0.0000
vt 0.5943 0.9438 0.0000
vt 0.5627 0.9438 0.0000
vt 0.5608 0.0509 0.0000
vt 0.6457 0.0509 0.0000
vt 0.6439 0.9438 0.0000
vt 0.6123 0.9438 0.0000
vt 0.6104 0.0509 0.0000
vt 0.6953 0.0509 0.0000
vt 0.6935 0.9438 0.0000
vt 0.6619 0.9438 0.0000
vt 0.6600 0.0509 0.0000
vt 0.7521 0.9438 0.0000
vt 0.7521 0.0509 0.0000
vt 0.7025 0.9438 0.0000
vt 0.7025 0.0509 0.0000
vt 0.8017 0.9438 0.0000
vt 0.8017 0.0509 0.0000
vt 0.8513 0.9438 0.0000
vt 0.8513 0.0509 0.0000
vt 0.9009 0.9438 0.0000
vt 0.9009 0.0509 0.0000
vt 0.9505 0.9438 0.0000
vt 0.9505 0.0509 0.0000
vt 0.1072 0.9438 0.0000
vt 0.1072 0.0509 0.0000
vt 0.0576 0.9438 0.0000
vt 0.0576 0.0509 0.0000
vt 0.1568 0.9438 0.0000
vt 0.1568 0.0509 0.0000
vt 0.2065 0.9438 0.0000
vt 0.2065 0.0509 0.0000
vt 0.2561 0.9438 0.0000
vt 0.2561 0.0509 0.0000
vt 0.3057 0.9438 0.0000
vt 0.3057 0.0509 0.0000
vt 0.3553 0.9438 0.0000
vt 0.3553 0.0509 0.0000
vt 0.4049 0.9438 0.0000
vt 0.4049 0.0509 0.0000
vt 0.4545 0.9438 0.0000
vt 0.4545 0.0509 0.0000
vt 0.5041 0.9438 0.0000
vt 0.5041 0.0509 0.0000
vt 0.5537 0.9438 0.0000
vt 0.5537 0.0509 0.0000
vt 0.6033 0.9438 0.0000
vt 0.6033 0.0509 0.0000
vt 0.6529 0.9438 0.0000
vt 0.6529 0.0509 0.0000
# 110 texture coords

g OldColumn01_part_01
usemtl OldColumn01_part_01
s off
f 9/25/7 10/26/7 11/27/7 12/28/7 
f 13/29/8 14/30/8 15/31/8 16/32/8 
f 17/33/9 18/34/9 19/35/9 20/36/9 
f 21/37/10 22/38/10 23/39/10 24/40/10 
f 25/41/11 26/42/11 27/43/11 28/44/11 
f 29/45/12 30/46/12 31/47/12 32/48/12 
f 33/49/13 34/50/13 35/51/13 36/52/13 
f 37/53/14 38/54/14 39/55/14 40/56/14 
f 41/57/15 42/58/15 43/59/15 44/60/15 
f 45/61/16 46/62/16 47/63/16 48/64/16 
f 49/65/17 50/66/17 51/67/17 52/68/17 
f 53/69/18 54/70/18 55/71/18 56/72/18 
f 57/73/19 58/74/19 59/75/19 60/76/19 
f 61/77/20 62/78/20 63/79/20 64/80/20 
f 65/81/21 66/82/21 67/83/21 68/84/21 
f 69/85/22 70/86/22 71/87/22 72/88/22 
f 73/89/23 74/90/23 75/91/23 76/92/23 
f 77/93/24 78/94/24 79/95/24 80/96/24 
f 81/97/25 10/26/25 9/25/25 82/98/25 
f 11/27/26 83/99/26 84/100/26 12/28/26 
f 85/101/27 14/30/27 13/29/27 86/102/27 
f 15/31/28 81/97/28 82/98/28 16/32/28 
f 87/103/29 18/34/29 17/33/29 88/104/29 
f 19/35/30 85/101/30 86/102/30 20/36/30 
f 89/105/31 22/38/31 21/37/31 90/106/31 
f 23/39/32 87/103/32 88/104/32 24/40/32 
f 91/107/33 26/42/33 25/41/33 92/108/33 
f 27/43/34 89/105/34 90/106/34 28/44/34 
f 93/109/35 30/46/35 29/45/35 94/110/35 
f 31/47/36 91/111/36 92/112/36 32/48/36 
f 95/113/37 34/50/37 33/49/37 96/114/37 
f 35/51/38 93/109/38 94/110/38 36/52/38 
f 97/115/39 38/54/39 37/53/39 98/116/39 
f 39/55/40 95/113/40 96/114/40 40/56/40 
f 99/117/41 42/58/41 41/57/41 100/118/41 
f 43/59/42 97/115/42 98/116/42 44/60/42 
f 101/119/43 46/62/43 45/61/43 102/120/43 
f 47/63/44 99/117/44 100/118/44 48/64/44 
f 103/121/45 50/66/45 49/65/45 104/122/45 
f 51/67/46 101/119/46 102/120/46 52/68/46 
f 105/123/47 54/70/47 53/69/47 106/124/47 
f 55/71/48 103/121/48 104/122/48 56/72/48 
f 107/125/49 58/74/49 57/73/49 108/126/49 
f 59/75/50 105/123/50 106/124/50 60/76/50 
f 109/127/51 62/78/51 61/77/51 110/128/51 
f 63/79/52 107/125/52 108/126/52 64/80/52 
f 111/129/53 66/82/53 65/81/53 112/130/53 
f 67/83/54 109/127/54 110/128/54 68/84/54 
f 113/131/55 70/86/55 69/85/55 114/132/55 
f 71/87/56 111/129/56 112/130/56 72/88/56 
f 115/133/57 74/90/57 73/89/57 116/134/57 
f 75/91/58 113/131/58 114/132/58 76/92/58 
f 83/99/59 78/94/59 77/93/59 84/100/59 
f 79/95/60 115/133/60 116/134/60 80/96/60 
# 54 polygons

#
# object OldColumn01_part_02
#

v  -122.7362 305.1942 -23.0286
v  -128.3386 305.1942 -22.7511
v  -128.1418 305.1942 -21.8871
v  -122.8467 305.1942 -22.1493
v  -133.5083 305.1942 -20.5743
v  -133.0278 305.1942 -19.8297
v  -137.6217 305.1942 -16.7606
v  -136.9155 305.1942 -16.2253
v  -140.1827 305.1942 -11.7701
v  -139.3360 305.1942 -11.5085
v  -140.8823 305.1942 -6.2046
v  -139.9973 305.1942 -6.2484
v  -139.6363 305.1942 -0.7354
v  -138.8196 305.1942 -1.0793
v  -136.5948 305.1942 3.9777
v  -135.9450 305.1942 3.3752
v  -132.1248 305.1942 7.3664
v  -131.7202 305.1942 6.5780
v  -126.7653 305.1942 9.0218
v  -126.6548 305.1942 8.1426
v  -121.1629 305.1942 8.7444
v  -121.3598 305.1942 7.8804
v  -115.9932 305.1942 6.5676
v  -116.4737 305.1942 5.8230
v  -111.8798 305.1942 2.7539
v  -112.5860 305.1942 2.2186
v  -109.3189 305.1942 -2.2366
v  -110.1655 305.1942 -2.4982
v  -108.6192 305.1942 -7.8021
v  -109.5043 305.1942 -7.7583
v  -109.8653 305.1942 -13.2713
v  -110.6820 305.1942 -12.9274
v  -112.9067 305.1942 -17.9844
v  -113.5565 305.1942 -17.3819
v  -117.3767 305.1942 -21.3731
v  -117.7813 305.1942 -20.5847
v  -129.9181 312.6160 -29.6837
v  -121.8493 312.6160 -30.0832
v  -137.3636 312.6160 -26.5486
v  -143.2878 312.6160 -21.0560
v  -146.9762 312.6160 -13.8685
v  -147.9838 312.6160 -5.8529
v  -146.1892 312.6160 2.0239
v  -141.8089 312.6160 8.8119
v  -135.3710 312.6160 13.6923
v  -127.6522 312.6160 16.0765
v  -119.5834 312.6160 15.6770
v  -112.1379 312.6160 12.5419
v  -106.2137 312.6160 7.0493
v  -102.5254 312.6160 -0.1382
v  -101.5177 312.6160 -8.1538
v  -103.3123 312.6160 -16.0306
v  -107.6927 312.6160 -22.8186
v  -114.1305 312.6160 -27.6990
v  -129.9181 313.9326 -29.6837
v  -121.8493 313.9326 -30.0832
v  -137.3636 313.9326 -26.5486
v  -143.2878 313.9326 -21.0560
v  -146.9762 313.9326 -13.8685
v  -147.9838 313.9326 -5.8529
v  -146.1892 313.9326 2.0239
v  -141.8089 313.9326 8.8119
v  -135.3710 313.9326 13.6923
v  -127.6522 313.9326 16.0765
v  -119.5834 313.9326 15.6770
v  -112.1379 313.9326 12.5419
v  -106.2137 313.9326 7.0493
v  -102.5254 313.9326 -0.1382
v  -101.5177 313.9326 -8.1538
v  -103.3123 313.9326 -16.0306
v  -107.6927 313.9326 -22.8186
v  -114.1305 313.9326 -27.6990
v  -129.5743 313.9326 -28.1748
v  -122.0424 313.9326 -28.5478
v  -136.5245 313.9326 -25.2482
v  -142.0546 313.9326 -20.1211
v  -145.4976 313.9326 -13.4118
v  -146.4382 313.9326 -5.9295
v  -144.7630 313.9326 1.4233
v  -140.6740 313.9326 7.7597
v  -134.6645 313.9326 12.3154
v  -127.4592 313.9326 14.5410
v  -119.9272 313.9326 14.1681
v  -112.9771 313.9326 11.2415
v  -107.4470 313.9326 6.1144
v  -104.0040 313.9326 -0.5950
v  -103.0634 313.9326 -8.0772
v  -104.7386 313.9326 -15.4300
v  -108.8275 313.9326 -21.7664
v  -114.8371 313.9326 -26.3221
v  -130.6010 323.0596 -32.6811
v  -121.4659 323.0596 -33.1335
v  -139.0305 323.0596 -29.1317
v  -145.7377 323.0596 -22.9132
v  -149.9135 323.0596 -14.7758
v  -151.0543 323.0596 -5.7009
v  -149.0226 323.0596 3.2169
v  -144.0632 323.0596 10.9020
v  -136.7746 323.0596 16.4274
v  -128.0357 323.0596 19.1268
v  -118.9005 323.0596 18.6744
v  -110.4710 323.0596 15.1250
v  -103.7639 323.0596 8.9065
v  -99.5880 323.0596 0.7691
v  -98.4472 323.0596 -8.3058
v  -100.4790 323.0596 -17.2236
v  -105.4383 323.0596 -24.9087
v  -112.7270 323.0596 -30.4341
# 108 vertices

vn 0.0000 1.0000 -0.0000
vn -0.0339 -0.7277 -0.6850
vn -0.2662 -0.7277 -0.6321
vn -0.4663 -0.7277 -0.5030
vn -0.6102 -0.7277 -0.3131
vn -0.6805 -0.7277 -0.0855
vn -0.6687 -0.7277 0.1524
vn -0.5763 -0.7277 0.3719
vn -0.4143 -0.7277 0.5466
vn -0.2024 -0.7277 0.6553
vn 0.0339 -0.7277 0.6850
vn 0.2662 -0.7277 0.6321
vn 0.4663 -0.7277 0.5030
vn 0.6102 -0.7277 0.3131
vn 0.6805 -0.7277 0.0855
vn 0.6687 -0.7277 -0.1524
vn 0.5763 -0.7277 -0.3719
vn 0.4143 -0.7277 -0.5466
vn 0.2024 -0.7277 -0.6553
vn -0.0495 0.0000 -0.9988
vn -0.3881 0.0000 -0.9216
vn -0.6799 0.0000 -0.7333
vn -0.8897 0.0000 -0.4566
vn -0.9922 0.0000 -0.1247
vn -0.9750 0.0000 0.2221
vn -0.8402 0.0000 0.5422
vn -0.6041 0.0000 0.7969
vn -0.2951 0.0000 0.9555
vn 0.0495 0.0000 0.9988
vn 0.3881 0.0000 0.9216
vn 0.6799 0.0000 0.7333
vn 0.8897 0.0000 0.4566
vn 0.9922 0.0000 0.1247
vn 0.9750 0.0000 -0.2221
vn 0.8402 0.0000 -0.5422
vn 0.6041 0.0000 -0.7969
vn 0.2951 0.0000 -0.9555
vn -0.0443 -0.4463 -0.8938
vn -0.3473 -0.4463 -0.8248
vn -0.6084 -0.4463 -0.6562
vn -0.7962 -0.4463 -0.4086
vn -0.8879 -0.4463 -0.1116
vn -0.8725 -0.4463 0.1988
vn -0.7519 -0.4463 0.4852
vn -0.5406 -0.4463 0.7131
vn -0.2641 -0.4463 0.8550
vn 0.0443 -0.4463 0.8938
vn 0.3473 -0.4463 0.8248
vn 0.6084 -0.4463 0.6562
vn 0.7962 -0.4463 0.4086
vn 0.8879 -0.4463 0.1116
vn 0.8725 -0.4463 -0.1988
vn 0.7519 -0.4463 -0.4852
vn 0.5406 -0.4463 -0.7131
vn 0.2641 -0.4463 -0.8550
# 55 vertex normals

vt 0.7500 1.0000 0.0000
vt 0.8056 1.0000 0.0000
vt 0.8611 1.0000 0.0000
vt 0.9167 1.0000 0.0000
vt 0.9722 1.0000 0.0000
vt 1.0278 1.0000 0.0000
vt 0.0278 1.0000 0.0000
vt 0.0833 1.0000 0.0000
vt 0.1389 1.0000 0.0000
vt 0.1944 1.0000 0.0000
vt 0.2500 1.0000 0.0000
vt 0.3056 1.0000 0.0000
vt 0.3611 1.0000 0.0000
vt 0.4167 1.0000 0.0000
vt 0.4722 1.0000 0.0000
vt 0.5278 1.0000 0.0000
vt 0.5833 1.0000 0.0000
vt 0.6389 1.0000 0.0000
vt 0.6944 1.0000 0.0000
vt 0.9253 0.1895 0.0000
vt 0.9765 0.1895 0.0000
vt 0.9765 0.3520 0.0000
vt 0.9253 0.3520 0.0000
vt 0.0485 0.1895 0.0000
vt 0.0998 0.1895 0.0000
vt 0.0998 0.3520 0.0000
vt 0.0485 0.3520 0.0000
vt 0.1513 0.1895 0.0000
vt 0.1513 0.3520 0.0000
vt 0.2031 0.1895 0.0000
vt 0.2031 0.3520 0.0000
vt 0.2550 0.1895 0.0000
vt 0.2550 0.3520 0.0000
vt 0.3069 0.1895 0.0000
vt 0.3069 0.3520 0.0000
vt 0.3587 0.1895 0.0000
vt 0.3587 0.3520 0.0000
vt 0.4101 0.1895 0.0000
vt 0.4101 0.3520 0.0000
vt 0.4613 0.1895 0.0000
vt 0.4613 0.3520 0.0000
vt 0.5125 0.1895 0.0000
vt 0.5125 0.3520 0.0000
vt 0.5638 0.1895 0.0000
vt 0.5638 0.3520 0.0000
vt 0.6153 0.1895 0.0000
vt 0.6153 0.3520 0.0000
vt 0.6670 0.1895 0.0000
vt 0.6670 0.3520 0.0000
vt 0.7190 0.1895 0.0000
vt 0.7190 0.3520 0.0000
vt 0.7709 0.1895 0.0000
vt 0.7709 0.3520 0.0000
vt 0.8226 0.1895 0.0000
vt 0.8226 0.3520 0.0000
vt 0.8741 0.1895 0.0000
vt 0.8741 0.3520 0.0000
vt 0.9370 0.4256 0.0000
vt 0.9901 0.4256 0.0000
vt 0.9901 0.4609 0.0000
vt 0.9370 0.4609 0.0000
vt 0.0274 0.4256 0.0000
vt 0.0806 0.4256 0.0000
vt 0.0806 0.4609 0.0000
vt 0.0274 0.4609 0.0000
vt 0.1341 0.4256 0.0000
vt 0.1341 0.4609 0.0000
vt 0.1878 0.4256 0.0000
vt 0.1878 0.4609 0.0000
vt 0.2417 0.4256 0.0000
vt 0.2417 0.4609 0.0000
vt 0.2955 0.4256 0.0000
vt 0.2955 0.4609 0.0000
vt 0.3492 0.4256 0.0000
vt 0.3492 0.4609 0.0000
vt 0.4025 0.4256 0.0000
vt 0.4025 0.4609 0.0000
vt 0.4557 0.4256 0.0000
vt 0.4557 0.4609 0.0000
vt 0.5087 0.4256 0.0000
vt 0.5087 0.4609 0.0000
vt 0.5619 0.4256 0.0000
vt 0.5619 0.4609 0.0000
vt 0.6154 0.4256 0.0000
vt 0.6154 0.4609 0.0000
vt 0.6691 0.4256 0.0000
vt 0.6691 0.4609 0.0000
vt 0.7230 0.4256 0.0000
vt 0.7230 0.4609 0.0000
vt 0.7768 0.4256 0.0000
vt 0.7768 0.4609 0.0000
vt 0.8305 0.4256 0.0000
vt 0.8305 0.4609 0.0000
vt 0.8839 0.4256 0.0000
vt 0.8839 0.4609 0.0000
vt 0.9215 0.5279 0.0000
vt 0.9726 0.5279 0.0000
vt 0.9726 0.7089 0.0000
vt 0.9215 0.7089 0.0000
vt 0.0447 0.5279 0.0000
vt 0.0960 0.5279 0.0000
vt 0.0960 0.7089 0.0000
vt 0.0447 0.7089 0.0000
vt 0.1475 0.5279 0.0000
vt 0.1475 0.7089 0.0000
vt 0.1993 0.5279 0.0000
vt 0.1993 0.7089 0.0000
vt 0.2512 0.5279 0.0000
vt 0.2512 0.7089 0.0000
vt 0.3031 0.5279 0.0000
vt 0.3031 0.7089 0.0000
vt 0.3548 0.5279 0.0000
vt 0.3548 0.7089 0.0000
vt 0.4063 0.5279 0.0000
vt 0.4063 0.7089 0.0000
vt 0.4575 0.5279 0.0000
vt 0.4575 0.7089 0.0000
vt 0.5087 0.5279 0.0000
vt 0.5087 0.7089 0.0000
vt 0.5599 0.5279 0.0000
vt 0.5599 0.7089 0.0000
vt 0.6114 0.5279 0.0000
vt 0.6114 0.7089 0.0000
vt 0.6632 0.5279 0.0000
vt 0.6632 0.7089 0.0000
vt 0.7152 0.5279 0.0000
vt 0.7152 0.7089 0.0000
vt 0.7671 0.5279 0.0000
vt 0.7671 0.7089 0.0000
vt 0.8188 0.5279 0.0000
vt 0.8188 0.7089 0.0000
vt 0.8702 0.5279 0.0000
vt 0.8702 0.7089 0.0000
# 133 texture coords

g OldColumn01_part_02
usemtl OldColumn01_part_02
s off
f 117/135/61 118/136/61 119/136/61 120/135/61 
f 118/136/61 121/137/61 122/137/61 119/136/61 
f 121/137/61 123/138/61 124/138/61 122/137/61 
f 123/138/61 125/139/61 126/139/61 124/138/61 
f 125/139/61 127/140/61 128/140/61 126/139/61 
f 127/141/61 129/142/61 130/142/61 128/141/61 
f 129/142/61 131/143/61 132/143/61 130/142/61 
f 131/143/61 133/144/61 134/144/61 132/143/61 
f 133/144/61 135/145/61 136/145/61 134/144/61 
f 135/145/61 137/146/61 138/146/61 136/145/61 
f 137/146/61 139/147/61 140/147/61 138/146/61 
f 139/147/61 141/148/61 142/148/61 140/147/61 
f 141/148/61 143/149/61 144/149/61 142/148/61 
f 143/149/61 145/150/61 146/150/61 144/149/61 
f 145/150/61 147/151/61 148/151/61 146/150/61 
f 147/151/61 149/152/61 150/152/61 148/151/61 
f 149/152/61 151/153/61 152/153/61 150/152/61 
f 151/153/61 117/135/61 120/135/61 152/153/61 
f 120/154/62 119/155/62 153/156/62 154/157/62 
f 119/158/63 122/159/63 155/160/63 153/161/63 
f 122/159/64 124/162/64 156/163/64 155/160/64 
f 124/162/65 126/164/65 157/165/65 156/163/65 
f 126/164/66 128/166/66 158/167/66 157/165/66 
f 128/166/67 130/168/67 159/169/67 158/167/67 
f 130/168/68 132/170/68 160/171/68 159/169/68 
f 132/170/69 134/172/69 161/173/69 160/171/69 
f 134/172/70 136/174/70 162/175/70 161/173/70 
f 136/174/71 138/176/71 163/177/71 162/175/71 
f 138/176/72 140/178/72 164/179/72 163/177/72 
f 140/178/73 142/180/73 165/181/73 164/179/73 
f 142/180/74 144/182/74 166/183/74 165/181/74 
f 144/182/75 146/184/75 167/185/75 166/183/75 
f 146/184/76 148/186/76 168/187/76 167/185/76 
f 148/186/77 150/188/77 169/189/77 168/187/77 
f 150/188/78 152/190/78 170/191/78 169/189/78 
f 152/190/79 120/154/79 154/157/79 170/191/79 
f 154/192/80 153/193/80 171/194/80 172/195/80 
f 153/196/81 155/197/81 173/198/81 171/199/81 
f 155/197/82 156/200/82 174/201/82 173/198/82 
f 156/200/83 157/202/83 175/203/83 174/201/83 
f 157/202/84 158/204/84 176/205/84 175/203/84 
f 158/204/85 159/206/85 177/207/85 176/205/85 
f 159/206/86 160/208/86 178/209/86 177/207/86 
f 160/208/87 161/210/87 179/211/87 178/209/87 
f 161/210/88 162/212/88 180/213/88 179/211/88 
f 162/212/89 163/214/89 181/215/89 180/213/89 
f 163/214/90 164/216/90 182/217/90 181/215/90 
f 164/216/91 165/218/91 183/219/91 182/217/91 
f 165/218/92 166/220/92 184/221/92 183/219/92 
f 166/220/93 167/222/93 185/223/93 184/221/93 
f 167/222/94 168/224/94 186/225/94 185/223/94 
f 168/224/95 169/226/95 187/227/95 186/225/95 
f 169/226/96 170/228/96 188/229/96 187/227/96 
f 170/228/97 154/192/97 172/195/97 188/229/97 
f 172/135/61 171/136/61 189/136/61 190/135/61 
f 171/136/61 173/137/61 191/137/61 189/136/61 
f 173/137/61 174/138/61 192/138/61 191/137/61 
f 174/138/61 175/139/61 193/139/61 192/138/61 
f 175/139/61 176/140/61 194/140/61 193/139/61 
f 176/141/61 177/142/61 195/142/61 194/141/61 
f 177/142/61 178/143/61 196/143/61 195/142/61 
f 178/143/61 179/144/61 197/144/61 196/143/61 
f 179/144/61 180/145/61 198/145/61 197/144/61 
f 180/145/61 181/146/61 199/146/61 198/145/61 
f 181/146/61 182/147/61 200/147/61 199/146/61 
f 182/147/61 183/148/61 201/148/61 200/147/61 
f 183/148/61 184/149/61 202/149/61 201/148/61 
f 184/149/61 185/150/61 203/150/61 202/149/61 
f 185/150/61 186/151/61 204/151/61 203/150/61 
f 186/151/61 187/152/61 205/152/61 204/151/61 
f 187/152/61 188/153/61 206/153/61 205/152/61 
f 188/153/61 172/135/61 190/135/61 206/153/61 
f 190/230/98 189/231/98 207/232/98 208/233/98 
f 189/234/99 191/235/99 209/236/99 207/237/99 
f 191/235/100 192/238/100 210/239/100 209/236/100 
f 192/238/101 193/240/101 211/241/101 210/239/101 
f 193/240/102 194/242/102 212/243/102 211/241/102 
f 194/242/103 195/244/103 213/245/103 212/243/103 
f 195/244/104 196/246/104 214/247/104 213/245/104 
f 196/246/105 197/248/105 215/249/105 214/247/105 
f 197/248/106 198/250/106 216/251/106 215/249/106 
f 198/250/107 199/252/107 217/253/107 216/251/107 
f 199/252/108 200/254/108 218/255/108 217/253/108 
f 200/254/109 201/256/109 219/257/109 218/255/109 
f 201/256/110 202/258/110 220/259/110 219/257/110 
f 202/258/111 203/260/111 221/261/111 220/259/111 
f 203/260/112 204/262/112 222/263/112 221/261/112 
f 204/262/113 205/264/113 223/265/113 222/263/113 
f 205/264/114 206/266/114 224/267/114 223/265/114 
f 206/266/115 190/230/115 208/233/115 224/267/115 
# 90 polygons

